# xmcd
#
# Track frame offsets: 
#        150
#        13224
#        25177
#        35835
#        54126
#        66132
#        79218
#        92276
#        109219
#        121516
#        134242
#        147626
#        159701
#        173329
#        186390
#        197788
#        209508
#        223770
#        235589
#        250631
#        263890
#
# Disc length: 3693 seconds
#
# Revision: 1
# Processed by: cddbd v1.5.2PL0 Copyright (c) Steve Scherf et al.
# Submitted via: ExactAudioCopy v1.0b1
#
DISCID=2f0e6b15
DTITLE=The Four Tops - Lost And Found - Lost With You - Disc 2
DYEAR=2005
DGENRE=Soul
TTITLE0=Same-O Same-O (stereo)
TTITLE1=Clip My Wings (stereo)
TTITLE2=I Can't Hold Back (stereo)
TTITLE3=Old-Fashioned Man (2005 stereo mix)
TTITLE4=No Time (stereo)
TTITLE5=My Love Keeps On Growing (mono)
TTITLE6=You Can't Keep A Good Man Down (stereo)
TTITLE7=My Fatherless Son (mono)
TTITLE8=Never Say No To Your Baby (stereo)
TTITLE9=Have A Little Faith (mono)
TTITLE10=Magic Mary (2005 stereo mix)
TTITLE11=Don't You Think You Owe Me Something (mono)
TTITLE12=Starving For Your Love (mono)
TTITLE13=Rocks In My Bed (mono)
TTITLE14=Which Way Is The Sky? (mono)
TTITLE15=These Are The Questions (mono)
TTITLE16=Deep In The Pit Of Your Love (mono)
TTITLE17=You're My Kind Of Woman (mono)
TTITLE18=Where Do I Go From Here (mono)
TTITLE19=Baby Dumplin' (stereo)
TTITLE20=Lost Without You (mono)
EXTD=
EXTT0=
EXTT1=
EXTT2=
EXTT3=
EXTT4=
EXTT5=
EXTT6=
EXTT7=
EXTT8=
EXTT9=
EXTT10=
EXTT11=
EXTT12=
EXTT13=
EXTT14=
EXTT15=
EXTT16=
EXTT17=
EXTT18=
EXTT19=
EXTT20=
PLAYORDER=
